<?xml version="1.0" encoding="utf-8"?>
<!-- Generator: Adobe Illustrator 25.0.0, SVG Export Plug-In . SVG Version: 6.00 Build 0)  -->
<svg version="1.1" id="Layer_1" xmlns="http://www.w3.org/2000/svg" xmlns:xlink="http://www.w3.org/1999/xlink" x="0px" y="0px"
	 viewBox="0 0 772 257" style="enable-background:new 0 0 772 257;" xml:space="preserve">
<style type="text/css">
	.st0{fill:#08172E;}
	.st1{fill:#FFFFFF;}
	.st2{fill:#1491EA;}
	.st3{fill:#64C8FA;}
	.st4{font-family:'Lato-Bold';}
	.st5{font-size:98.5948px;}
	.st6{font-family:'Lato-Light';}
</style>
<g>
	<g>
		<path class="st0" d="M277.16,125.95c0,72.44-58.73,131.16-131.16,131.16S14.84,198.38,14.84,125.95
			c0-43.83,21.5-82.64,54.53-106.46C50.63,38.75,39.09,65.04,39.09,94.03c0,59.05,47.86,106.91,106.91,106.91
			s106.91-47.86,106.91-106.91c0-29-11.54-55.29-30.28-74.54C255.66,43.3,277.16,82.12,277.16,125.95z"/>
		<polygon class="st1" points="179.03,195.74 181.74,207.32 146,255.45 110.26,206.69 113.08,195.78 115.36,196.47 146,210.75 
			176.64,196.47 		"/>
		<g>
			<polygon class="st2" points="146,14 146,250.73 113.98,206.11 137.33,60.03 115.29,36.49 133.71,14 			"/>
			<polygon class="st3" points="146,14 146,250.73 178.02,206.11 154.67,60.03 176.71,36.49 158.29,14 			"/>
		</g>
	</g>
	<text transform="matrix(1 0 0 1 353.1865 168.8542)"><tspan x="0" y="0" class="st4 st5">Hire</tspan><tspan x="194.23" y="0" class="st6 st5">Hunt</tspan></text>
</g>
</svg>
